<svg xmlns="http://www.w3.org/2000/svg" width="24" height="24" viewBox="0 0 24 24">
  <path fill="#01131B" fill-rule="evenodd" d="M12.75,13.25 C12.75,13.6642136 12.4142136,14 12,14 C11.5857864,14 11.25,13.6642136 11.25,13.25 L11.25,6.375 C11.25,5.96078644 11.5857864,5.625 12,5.625 C12.4142136,5.625 12.75,5.96078644 12.75,6.375 L12.75,13.25 Z M10.9375,16.0625 C10.9375,15.4758396 11.41296,15.0002348 12.0004344,15.0000001 C12.4144483,15.0002348 12.75,15.3359312 12.75,15.75 C12.75,16.1642093 12.4142204,16.4999932 12.0000127,16.5 C12.2416287,16.4999932 12.4375,16.3041177 12.4375,16.0625 C12.4375,15.8208781 12.2416219,15.625 12,15.625 C11.7583781,15.625 11.5625,15.8208781 11.5625,16.0625 C11.5625,16.3041219 11.7583781,16.5 12,16.5 C11.5857864,16.5 11.25,16.1642136 11.25,15.75 C11.25,15.3359312 11.5855517,15.0002348 12.0004344,15.0000001 C12.58704,15.0002348 13.0625,15.4758396 13.0625,16.0625 C13.0625,16.6493052 12.5868052,17.125 12,17.125 C11.4131948,17.125 10.9375,16.6493052 10.9375,16.0625 Z M22.125,12 C22.125,17.5918802 17.5918802,22.125 12,22.125 C6.4081181,22.125 1.875,17.5918811 1.875,12 C1.875,6.40811727 6.40811727,1.875 12,1.875 C17.5918811,1.875 22.125,6.4081181 22.125,12 Z M20.625,12 C20.625,7.23654529 16.763454,3.375 12,3.375 C7.2365444,3.375 3.375,7.2365444 3.375,12 C3.375,16.763454 7.23654529,20.625 12,20.625 C16.7634531,20.625 20.625,16.7634531 20.625,12 Z"/>
</svg>
