<svg xmlns="http://www.w3.org/2000/svg" width="24" height="24" viewBox="0 0 24 24">
  <path d="M19.8661165,11.3333333 L12.1830583,3.13807119 C11.9389806,2.87772166 11.9389806,2.45561167 12.1830583,2.19526215 C12.4271359,1.93491262 12.8228641,1.93491262 13.0669417,2.19526215 L21.8169417,11.5285955 C21.9300445,11.6492384 22,11.8159051 22,12 C22,12.1840949 21.9300445,12.3507616 21.8169417,12.4714045 L13.0669417,21.8047379 C12.8228641,22.0650874 12.4271359,22.0650874 12.1830583,21.8047379 C11.9389806,21.5443883 11.9389806,21.1222783 12.1830583,20.8619288 L19.8661165,12.6666667 L2.625,12.6666667 C2.27982203,12.6666667 2,12.3681898 2,12 C2,11.6318102 2.27982203,11.3333333 2.625,11.3333333 L19.8661165,11.3333333 Z"/>
</svg>
