<svg xmlns="http://www.w3.org/2000/svg" width="24" height="24" viewBox="0 0 24 24">
  <path fill="#01131B" fill-rule="evenodd" d="M14.6666667,19.7692308 L14.6666667,15.4615385 C14.6666667,14.4419335 13.7712387,13.6153846 12.6666667,13.6153846 L11.3333333,13.6153846 C10.2287613,13.6153846 9.33333333,14.4419335 9.33333333,15.4615385 L9.33333333,19.7692308 L5.33333333,19.7692308 L5.33333333,13.6153846 C5.33333333,13.2755171 5.0348565,13 4.66666667,13 C4.29847683,13 4,13.2755171 4,13.6153846 L4,20.3846154 C4,20.7244829 4.29847683,21 4.66666667,21 L10,21 C10.3681898,21 10.6666667,20.7244829 10.6666667,20.3846154 L10.6666667,15.4615385 C10.6666667,15.1216686 10.9651409,14.8461538 11.3333333,14.8461538 L12.6666667,14.8461538 C13.0348591,14.8461538 13.3333333,15.1216686 13.3333333,15.4615385 L13.3333333,20.3846154 C13.3333333,20.7244829 13.6318102,21 14,21 L19.3333333,21 C19.7015232,21 20,20.7244829 20,20.3846154 L20,13.6153846 C20,13.2755171 19.7015232,13 19.3333333,13 C18.9651435,13 18.6666667,13.2755171 18.6666667,13.6153846 L18.6666667,19.7692308 L14.6666667,19.7692308 Z M3.06694174,12.8188842 L11.5577751,4.41814925 C11.8020243,4.17633554 12.1979757,4.17633554 12.442082,4.41800784 L20.9330583,12.8188842 C21.1771359,13.0603719 21.5728641,13.0603719 21.8169417,12.8188842 C22.0610194,12.5773965 22.0610194,12.1858676 21.8169417,11.9443798 L13.3261084,3.54364488 C12.5939243,2.81876147 11.4060757,2.81876147 10.6737487,3.54378629 L2.18305826,11.9443798 C1.93898058,12.1858676 1.93898058,12.5773965 2.18305826,12.8188842 C2.42713594,13.0603719 2.82286406,13.0603719 3.06694174,12.8188842 Z"/>
</svg>
