<svg xmlns="http://www.w3.org/2000/svg" width="24" height="24" viewBox="0 0 24 24">
  <path fill="#01131B" fill-rule="evenodd" d="M5.78613986,3.50754428 C5.95722953,2.6483535 6.71549021,2.00080635 7.625,2.00080635 L16.375,2.00080635 C17.2845114,2.00080635 18.0427709,2.64835305 18.2138602,3.50754423 L21.0954915,2.06678669 C21.5110547,1.85901348 22,2.16118612 22,2.62578115 C22,5.8134332 21.2245849,7.81650822 19.875,8.82865606 C19.332772,9.23531066 18.7717386,9.43623863 18.25,9.49693256 L18.25,10.1254788 C18.25,11.1609733 17.4105363,12.0004032 16.375,12.0004032 L7.625,12.0004032 C6.58946553,12.0004032 5.75,11.1609727 5.75,10.1254788 L5.75,9.49693256 C5.22826142,9.43623863 4.66722801,9.23531066 4.125,8.82865606 C2.77541514,7.81650822 2,5.8134332 2,2.62578115 C2,2.16118612 2.48894531,1.85901348 2.9045085,2.06678669 L5.78613986,3.50754428 Z M5.75,4.88696123 L3.28037116,3.65219659 C3.41723189,5.85572287 4.00793047,7.17842045 4.875,7.82869637 C5.17046047,8.05028279 5.47117718,8.17511544 5.75,8.23100064 L5.75,4.88696123 Z M7,8.8652555 C7.00013035,8.87262553 7.00012972,8.87997573 7,8.88730348 L7,10.1254788 C7,10.4706442 7.27982108,10.7504536 7.625,10.7504536 L16.375,10.7504536 C16.7201804,10.7504536 17,10.4706452 17,10.1254788 L17,8.88730539 C16.9998703,8.87997573 16.9998697,8.87262553 17,8.8652555 L17,4.93788447 L12.3035268,7.54693103 C12.1147627,7.65179574 11.8852373,7.65179574 11.6964732,7.54693103 L7,4.93788447 L7,8.86525549 Z M18.25,8.23100064 C18.5288228,8.17511544 18.8295395,8.05028279 19.125,7.82869637 C19.9920695,7.17842045 20.5827681,5.85572287 20.7196288,3.65219659 L18.25,4.88696123 L18.25,8.23100064 Z M16.9124928,3.55660663 C16.803515,3.37346693 16.6035893,3.25075595 16.375,3.25075595 L7.625,3.25075595 C7.39641179,3.25075595 7.19648576,3.37346729 7.08750763,3.55660688 L12,6.28565927 L16.9124928,3.55660663 Z M11.375,15.1252772 C11.375,14.7801131 11.654822,14.5003024 12,14.5003024 C12.345178,14.5003024 12.625,14.7801131 12.625,15.1252772 L12.625,21.3750252 C12.625,21.7201893 12.345178,22 12,22 C11.654822,22 11.375,21.7201893 11.375,21.3750252 L11.375,15.1252772 Z M14.5,13.8753276 C14.5,13.5301635 14.779822,13.2503528 15.125,13.2503528 C15.470178,13.2503528 15.75,13.5301635 15.75,13.8753276 L15.75,17.6251764 C15.75,17.9703404 15.470178,18.2501512 15.125,18.2501512 C14.779822,18.2501512 14.5,17.9703404 14.5,17.6251764 L14.5,13.8753276 Z M8.25,13.8753276 C8.25,13.5301635 8.52982203,13.2503528 8.875,13.2503528 C9.22017797,13.2503528 9.5,13.5301635 9.5,13.8753276 L9.5,17.6251764 C9.5,17.9703404 9.22017797,18.2501512 8.875,18.2501512 C8.52982203,18.2501512 8.25,17.9703404 8.25,17.6251764 L8.25,13.8753276 Z"/>
</svg>
