<svg xmlns="http://www.w3.org/2000/svg" width="989" height="148" viewBox="0 0 989 148">
  <path fill="#F46524" fill-rule="evenodd" d="M367.919042,174.683513 C371.79742,171.511338 373.737609,166.972519 373.737609,161.068055 C373.737609,155.16459 371.79742,150.625771 367.919042,147.451597 C364.038663,144.279422 358.352108,142.692835 350.860377,142.692835 L330.760416,142.692835 L330.760416,179.442275 L350.860377,179.442275 C358.352108,179.442275 364.038663,177.855688 367.919042,174.683513 Z M372.6135,132.118585 C378.56408,134.760898 383.126526,138.551912 386.299835,143.486628 C389.473145,148.422344 391.0603,154.28282 391.0603,161.068055 C391.0603,167.765312 389.473145,173.604793 386.299835,178.582498 C383.126526,183.562203 378.56408,187.373212 372.6135,190.016524 C366.662919,192.660836 359.674237,193.983492 351.653455,193.983492 L330.760416,193.983492 L330.760416,226.55202 L313.569739,226.55202 L313.569739,128.151617 L351.653455,128.151617 C359.674237,128.151617 366.662919,129.473274 372.6135,132.118585 Z M421.408161,172.766012 C417.749804,175.895198 415.523587,180.059114 414.730509,185.257762 L454.798419,185.257762 C454.09235,180.148091 451.932139,176.004169 448.318787,172.830995 C444.703434,169.65982 440.206995,168.074232 434.830471,168.074232 C429.540954,168.074232 425.066518,169.638825 421.408161,172.766012 Z M470.269928,196.229908 L414.862522,196.229908 C415.831617,201.430555 418.366864,205.549483 422.466264,208.589693 C426.565664,211.629902 431.657161,213.150506 437.739754,213.150506 C445.496511,213.150506 451.890135,210.595171 456.914625,205.4845 L465.77449,215.661853 C462.60018,219.451867 458.587789,222.316122 453.741316,224.254618 C448.890842,226.194113 443.426309,227.162861 437.343716,227.162861 C429.584959,227.162861 422.751292,225.622262 416.846716,222.536065 C410.939139,219.451867 406.376694,215.154985 403.15938,209.647417 C399.941066,204.14085 398.332909,197.905472 398.332909,190.942283 C398.332909,184.069071 399.897062,177.877682 403.027367,172.370115 C406.155673,166.863547 410.499096,162.566665 416.053638,159.481467 C421.60718,156.39727 427.865791,154.853671 434.830471,154.853671 C441.707141,154.853671 447.855741,156.374276 453.278271,159.414485 C458.6998,162.455694 462.931212,166.730582 465.972509,172.237149 C469.013806,177.744716 470.534954,184.11406 470.534954,191.33818 C470.534954,192.485882 470.445946,194.114458 470.269928,196.229908 Z M534.867031,206.936823 C538.789414,202.883877 540.752606,197.551264 540.752606,190.941983 C540.752606,184.332703 538.789414,179.002089 534.867031,174.947144 C530.943649,170.894198 525.942161,168.866726 519.859567,168.866726 C515.89118,168.866726 512.321832,169.771491 509.147522,171.577021 C505.973212,173.382551 503.460967,175.96088 501.609786,179.309009 C499.758606,182.660138 498.832515,186.536129 498.832515,190.941983 C498.832515,195.349837 499.758606,199.225828 501.609786,202.575957 C503.460967,205.925086 505.973212,208.502415 509.147522,210.307946 C512.321832,212.116475 515.89118,213.018241 519.859567,213.018241 C525.942161,213.018241 530.943649,210.992767 534.867031,206.936823 Z M540.157548,159.348202 C545.579077,162.345422 549.830491,166.575322 552.917793,172.038901 C556.003094,177.504479 557.546244,183.80284 557.546244,190.941983 C557.546244,198.081126 556.003094,204.405481 552.917793,209.912049 C549.830491,215.420616 545.579077,219.67251 540.157548,222.66773 C534.736019,225.664951 528.586419,227.162561 521.710748,227.162561 C516.860274,227.162561 512.429842,226.324779 508.419451,224.651214 C504.408059,222.97765 501.03473,220.465303 498.303464,217.116175 L498.303464,226.237802 L482.567928,226.237802 L482.567928,128.151317 L499.096541,128.151317 L499.096541,164.239929 C501.917816,161.156732 505.246141,158.81934 509.081515,157.232752 C512.91689,155.647165 517.1253,154.853371 521.710748,154.853371 C528.586419,154.853371 534.736019,156.353981 540.157548,159.348202 Z M621.746609,206.936823 C625.668991,202.883877 627.631183,197.551264 627.631183,190.941983 C627.631183,184.332703 625.668991,179.002089 621.746609,174.947144 C617.823226,170.894198 612.819738,168.866726 606.737144,168.866726 C602.770757,168.866726 599.200409,169.771491 596.026099,171.577021 C592.851789,173.382551 590.340544,175.96088 588.489364,179.309009 C586.638183,182.660138 585.712093,186.536129 585.712093,190.941983 C585.712093,195.349837 586.638183,199.225828 588.489364,202.575957 C590.340544,205.925086 592.851789,208.502415 596.026099,210.307946 C599.200409,212.116475 602.770757,213.018241 606.737144,213.018241 C612.819738,213.018241 617.823226,210.992767 621.746609,206.936823 Z M627.036125,159.348202 C632.457654,162.345422 636.711069,166.575322 639.79637,172.038901 C642.881671,177.504479 644.425821,183.80284 644.425821,190.941983 C644.425821,198.081126 642.881671,204.405481 639.79637,209.912049 C636.711069,215.420616 632.457654,219.67251 627.036125,222.66773 C621.613596,225.664951 615.465996,227.162561 608.589325,227.162561 C603.739852,227.162561 599.309419,226.324779 595.299028,224.651214 C591.286636,222.97765 587.914307,220.465303 585.183041,217.116175 L585.183041,226.237802 L569.446505,226.237802 L569.446505,128.151317 L585.976118,128.151317 L585.976118,164.239929 C588.796393,161.156732 592.125718,158.81934 595.960092,157.232752 C599.795467,155.647165 604.003877,154.853371 608.589325,154.853371 C615.465996,154.853371 621.613596,156.353981 627.036125,159.348202 Z M656.325082,226.237302 L656.325082,128.151817 L672.854695,128.151817 L672.854695,226.237302 L656.325082,226.237302 Z M707.962021,172.766012 C704.302664,175.895198 702.077447,180.059114 701.284369,185.257762 L741.352279,185.257762 C740.64521,180.148091 738.485999,176.004169 734.872647,172.830995 C731.256294,169.65982 726.760855,168.074232 721.384331,168.074232 C716.094814,168.074232 711.619378,169.638825 707.962021,172.766012 Z M756.822788,196.229908 L701.416382,196.229908 C702.386477,201.430555 704.920724,205.549483 709.021124,208.589693 C713.119524,211.629902 718.211021,213.150506 724.293614,213.150506 C732.049371,213.150506 738.442995,210.595171 743.468485,205.4845 L752.32735,215.661853 C749.15404,219.451867 745.141649,222.316122 740.294176,224.254618 C735.444702,226.194113 729.980169,227.162861 723.897576,227.162861 C716.138819,227.162861 709.305152,225.622262 703.399576,222.536065 C697.491999,219.451867 692.930554,215.154985 689.71324,209.647417 C686.493926,204.14085 684.886769,197.905472 684.886769,190.942283 C684.886769,184.069071 686.450922,177.877682 689.581227,172.370115 C692.709533,166.863547 697.051956,162.566665 702.607498,159.481467 C708.16004,156.39727 714.418651,154.853671 721.384331,154.853671 C728.261002,154.853671 734.409601,156.374276 739.83113,159.414485 C745.252659,162.455694 749.485072,166.730582 752.526369,172.237149 C755.567666,177.744716 757.088814,184.11406 757.088814,191.33818 C757.088814,192.485882 756.998806,194.114458 756.822788,196.229908 Z M825.058446,147.451297 C821.177068,144.279122 815.492513,142.692535 807.998782,142.692535 L787.898821,142.692535 L787.898821,179.57494 L807.998782,179.57494 C815.492513,179.57494 821.177068,177.967358 825.058446,174.749196 C828.934825,171.534032 830.877014,166.972219 830.877014,161.067755 C830.877014,155.16429 828.934825,150.625471 825.058446,147.451297 Z M831.274053,226.237802 L812.363208,193.586295 C811.57013,193.674273 810.380014,193.718261 808.791859,193.718261 L787.898821,193.718261 L787.898821,226.237802 L770.709143,226.237802 L770.709143,128.151317 L808.791859,128.151317 C816.812642,128.151317 823.800324,129.473973 829.752904,132.118285 C835.703485,134.761598 840.26493,138.552612 843.43924,143.486328 C846.61355,148.423044 848.199704,154.28252 848.199704,161.067755 C848.199704,168.030943 846.499538,174.021385 843.108208,179.046078 C839.713876,184.068771 834.842401,187.814797 828.495782,190.282155 L849.785859,226.237802 L831.274053,226.237802 Z M908.761914,206.936823 C912.730301,202.883877 914.713494,197.551264 914.713494,190.941983 C914.713494,184.332703 912.730301,179.002089 908.761914,174.947144 C904.795527,170.894198 899.770036,168.866726 893.687443,168.866726 C887.604849,168.866726 882.600361,170.894198 878.677978,174.947144 C874.754595,179.002089 872.793404,184.332703 872.793404,190.941983 C872.793404,197.551264 874.754595,202.883877 878.677978,206.936823 C882.600361,210.992767 887.604849,213.018241 893.687443,213.018241 C899.770036,213.018241 904.795527,210.992767 908.761914,206.936823 Z M874.380559,222.536764 C868.65,219.452567 864.175563,215.155685 860.958249,209.647117 C857.738935,204.14055 856.131778,197.905172 856.131778,190.941983 C856.131778,183.980794 857.738935,177.76841 860.958249,172.303832 C864.175563,166.841253 868.65,162.566365 874.380559,159.481167 C880.110118,156.39697 886.545746,154.853371 893.687443,154.853371 C900.915148,154.853371 907.39478,156.39697 913.126339,159.481167 C918.855898,162.566365 923.329335,166.841253 926.547649,172.303832 C929.765963,177.76841 931.37512,183.980794 931.37512,190.941983 C931.37512,197.905172 929.765963,204.14055 926.547649,209.647117 C923.329335,215.155685 918.855898,219.452567 913.126339,222.536764 C907.39478,225.621962 900.915148,227.162561 893.687443,227.162561 C886.545746,227.162561 880.110118,225.621962 874.380559,222.536764 Z M979.177884,212.29093 C982.395198,210.396423 984.66542,207.688127 985.988549,204.161045 L985.988549,195.966176 L968.928884,195.966176 C959.406955,195.966176 954.647491,199.095362 954.647491,205.351735 C954.647491,208.347955 955.837607,210.727336 958.217839,212.488878 C960.599071,214.253419 963.905394,215.13319 968.135807,215.13319 C972.279211,215.13319 975.95857,214.186437 979.177884,212.29093 Z M994.252355,162.322928 C999.760893,167.302633 1002.51716,174.814679 1002.51716,184.861065 L1002.51716,226.237302 L986.912639,226.237302 L986.912639,217.644537 C984.884441,220.730734 981.998159,223.088121 978.251794,224.716697 C974.504428,226.347273 969.987988,227.163061 964.697471,227.163061 C959.406955,227.163061 954.779504,226.258296 950.812117,224.452766 C946.84573,222.647236 943.78043,220.135889 941.62122,216.917726 C939.461009,213.701563 938.382904,210.065509 938.382904,206.011563 C938.382904,199.667214 940.740134,194.577538 945.456594,190.743535 C950.172054,186.909532 957.600779,184.994031 967.738768,184.994031 L985.988549,184.994031 L985.988549,183.936306 C985.988549,179.001589 984.510405,175.210576 981.558117,172.568263 C978.603828,169.923951 974.2184,168.601295 968.400833,168.601295 C964.433446,168.601295 960.531065,169.220134 956.697691,170.452813 C952.863317,171.688492 949.622,173.406045 946.978743,175.608472 L940.49811,163.578602 C944.200471,160.760335 948.651906,158.601896 953.854413,157.102286 C959.054921,155.603676 964.565459,154.853871 970.384026,154.853871 C980.785041,154.853871 988.741817,157.345223 994.252355,162.322928 Z M1062.42041,210.308046 C1065.59472,208.502515 1068.10696,205.925186 1069.95814,202.576057 C1071.80932,199.225928 1072.73441,195.349937 1072.73441,190.942083 C1072.73441,186.536229 1071.80932,182.660238 1069.95814,179.309109 C1068.10696,175.96098 1065.59472,173.382651 1062.42041,171.577121 C1059.2471,169.77159 1055.67575,168.866826 1051.70936,168.866826 C1047.74197,168.866826 1044.17263,169.77159 1040.99732,171.577121 C1037.82401,173.382651 1035.31176,175.96098 1033.46058,179.309109 C1031.6084,182.660238 1030.68331,186.536229 1030.68331,190.942083 C1030.68331,195.349937 1031.6084,199.225928 1033.46058,202.576057 C1035.31176,205.925186 1037.82401,208.502515 1040.99732,210.308046 C1044.17263,212.116575 1047.74197,213.01834 1051.70936,213.01834 C1055.67575,213.01834 1059.2471,212.116575 1062.42041,210.308046 Z M1089,128.151417 L1089,226.237902 L1073.13245,226.237902 L1073.13245,217.116274 C1070.39919,220.465403 1067.02486,222.97775 1063.01546,224.651314 C1059.00307,226.324879 1054.57364,227.162661 1049.72617,227.162661 C1042.93651,227.162661 1036.83291,225.665051 1031.41038,222.66783 C1025.98885,219.672609 1021.73544,215.420716 1018.65014,209.912149 C1015.56283,204.405581 1014.02068,198.081226 1014.02068,190.942083 C1014.02068,183.80294 1015.56283,177.503579 1018.65014,172.039001 C1021.73544,166.575422 1025.98885,162.345522 1031.41038,159.348302 C1036.83291,156.354081 1042.93651,154.853471 1049.72617,154.853471 C1054.39862,154.853471 1058.67304,155.647265 1062.55342,157.232852 C1066.4308,158.81944 1069.73612,161.19982 1072.47039,164.371995 L1072.47039,128.151417 L1089,128.151417 Z M150.312909,226.853541 C150.312909,240.741929 139.04981,252 125.156455,252 C111.263099,252 100,240.741929 100,226.853541 C100,212.964155 111.263099,201.706083 125.156455,201.706083 C139.04981,201.706083 150.312909,212.964155 150.312909,226.853541 Z M206.915132,226.853541 C206.915132,240.741929 195.652033,252 181.758677,252 C167.865322,252 156.602223,240.741929 156.602223,226.853541 C156.602223,212.964155 167.865322,201.706083 181.758677,201.706083 C195.652033,201.706083 206.915132,212.964155 206.915132,226.853541 Z M263.517255,226.853541 C263.517255,240.741929 252.254156,252 238.3608,252 C224.467445,252 213.204346,240.741929 213.204346,226.853541 C213.204346,212.964155 224.467445,201.706083 238.3608,201.706083 C252.254156,201.706083 263.517255,212.964155 263.517255,226.853541 Z M178.963105,177.955062 C178.963105,191.844449 167.700006,203.10252 153.80665,203.10252 C139.913294,203.10252 128.650195,191.844449 128.650195,177.955062 C128.650195,164.065675 139.913294,152.807603 153.80665,152.807603 C167.700006,152.807603 178.963105,164.065675 178.963105,177.955062 Z M235.565328,177.955062 C235.565328,191.844449 224.302229,203.10252 210.408873,203.10252 C196.515517,203.10252 185.252418,191.844449 185.252418,177.955062 C185.252418,164.065675 196.515517,152.807603 210.408873,152.807603 C224.302229,152.807603 235.565328,164.065675 235.565328,177.955062 Z M206.915132,129.146459 C206.915132,143.035845 195.652033,154.293917 181.758677,154.293917 C167.865322,154.293917 156.602223,143.035845 156.602223,129.146459 C156.602223,115.258071 167.865322,104 181.758677,104 C195.652033,104 206.915132,115.258071 206.915132,129.146459 Z" transform="translate(-100 -104)"/>
</svg>
