<svg xmlns="http://www.w3.org/2000/svg" width="164" height="164" viewBox="0 0 164 164">
  <path fill="#F46524" fill-rule="evenodd" d="M50.461415,129.853524 C50.461415,143.741921 39.1650714,155 25.2307075,155 C11.2963436,155 -3.55271368e-15,143.741921 -3.55271368e-15,129.853524 C-3.55271368e-15,115.964128 11.2963436,104.706049 25.2307075,104.706049 C39.1650714,104.706049 50.461415,115.964128 50.461415,129.853524 Z M107.230708,129.853524 C107.230708,143.741921 95.9343639,155 82,155 C68.0656361,155 56.7692925,143.741921 56.7692925,129.853524 C56.7692925,115.964128 68.0656361,104.706049 82,104.706049 C95.9343639,104.706049 107.230708,115.964128 107.230708,129.853524 Z M79.196276,80.9551116 C79.196276,94.8445079 67.8999324,106.102587 53.9655685,106.102587 C40.0312046,106.102587 28.734861,94.8445079 28.734861,80.9551116 C28.734861,67.0657154 40.0312046,55.8076364 53.9655685,55.8076364 C67.8999324,55.8076364 79.196276,67.0657154 79.196276,80.9551116 Z M135.965568,80.9551116 C135.965568,94.8445079 124.669225,106.102587 110.734861,106.102587 C96.8004971,106.102587 85.5041535,94.8445079 85.5041535,80.9551116 C85.5041535,67.0657154 96.8004971,55.8076364 110.734861,55.8076364 C124.669225,55.8076364 135.965568,67.0657154 135.965568,80.9551116 Z M107.230708,32.1464755 C107.230708,46.0358718 95.9343639,57.2939508 82,57.2939508 C68.0656361,57.2939508 56.7692925,46.0358718 56.7692925,32.1464755 C56.7692925,18.258079 68.0656361,7 82,7 C95.9343639,7 107.230708,18.258079 107.230708,32.1464755 Z M164,129.853524 C164,143.741921 152.703656,155 138.769292,155 C124.834929,155 113.538585,143.741921 113.538585,129.853524 C113.538585,115.964128 124.834929,104.706049 138.769292,104.706049 C152.703656,104.706049 164,115.964128 164,129.853524 Z"/>
</svg>
